<svg width="416" height="190" viewBox="0 0 416 190" fill="none" xmlns="http://www.w3.org/2000/svg">
<g filter="url(#filter0_d_362_4)">
<g clip-path="url(#clip0_362_4)">
<g filter="url(#filter1_g_362_4)">
<path d="M412 26.2529H4V164.082H412V26.2529Z" fill="black"/>
</g>
<g filter="url(#filter2_n_362_4)">
<path d="M78.7298 39.0895C82.2894 39.426 85.3197 40.2432 87.8206 41.5412C90.3704 42.8391 92.1017 43.7524 93.0162 44.2812C93.9775 44.8099 94.7714 45.0744 95.3969 45.0744C96.0701 45.0744 96.6234 44.9301 97.056 44.6418C97.4895 44.3533 97.8745 44.0168 98.2111 43.6322C98.5476 43.2476 98.8358 42.8391 99.0763 42.4065C99.3168 41.9257 99.5574 41.4931 99.7979 41.1085H106.436V74.9264H101.241C100.183 73.8208 98.9803 71.4172 97.6339 67.7158C96.2868 63.9663 95.1326 60.9858 94.1705 58.7745C93.2568 56.5633 92.1017 54.4963 90.707 52.5734C87.6285 48.2951 83.6362 45.7714 78.7298 45.0022V39.0895ZM64.0831 143.212C61.2451 141.914 59.2489 141 58.0945 140.471C56.9401 139.895 55.7375 139.606 54.4869 139.606C53.2844 139.606 51.9375 140.927 50.4464 143.572H43.7363V107.951H48.7148C49.773 109.057 50.711 110.571 51.5287 112.494C52.3945 114.417 53.2844 116.508 54.1983 118.767C55.1603 120.978 56.1945 123.262 57.3008 125.617C58.4072 127.972 59.754 130.16 61.3413 132.179C64.9008 136.649 69.4223 139.173 74.9058 139.75V145.663C70.5767 145.278 66.9692 144.461 64.0831 143.212ZM80.8945 139.678C86.0894 139.053 90.1061 136.938 92.944 133.333C95.4454 130.112 96.6956 126.434 96.6956 122.3C96.6956 118.118 95.9502 114.777 94.4586 112.277C92.9678 109.73 90.9959 107.494 88.5422 105.572C86.1377 103.6 83.3716 101.822 80.2451 100.236C77.1185 98.6493 73.9198 97.0872 70.6489 95.5489C67.4261 93.9623 64.2514 92.328 61.1248 90.6454C58.0464 88.9151 55.3046 86.9445 52.8996 84.7327C47.4641 79.7335 44.7465 73.6525 44.7465 66.4899C44.7465 59.2313 47.2236 53.0301 52.1781 47.8865C57.4692 42.5025 64.3236 39.5221 72.7413 38.9453V44.9301C66.7768 45.6993 62.7603 48.7518 60.692 54.0876C60.0186 55.8182 59.6818 57.9814 59.6818 60.5772C59.6818 63.1731 60.4514 65.6006 61.9907 67.8599C63.5299 70.1193 65.5502 72.1383 68.0514 73.9169C70.5527 75.6955 73.3906 77.3299 76.5653 78.8201C79.7881 80.3103 83.059 81.8246 86.3782 83.3626C89.7449 84.9008 93.0162 86.5597 96.1908 88.3384C99.4137 90.117 102.275 92.1836 104.777 94.539C110.357 99.875 113.146 106.317 113.146 113.864C113.146 122.036 110.188 129.15 104.272 135.208C98.0666 141.649 90.2743 145.158 80.8945 145.735V139.678ZM126.494 143.572V139.317C127.36 138.74 128.298 138.332 129.309 138.091C130.367 137.851 131.353 137.563 132.266 137.227C134.527 136.505 135.802 135.183 136.09 133.261C136.427 131.338 136.596 128.862 136.596 125.834V58.7745C136.596 53.1503 135.97 49.8334 134.719 48.8239C133.71 48.0067 132.29 47.3818 130.463 46.9492C128.683 46.4684 127.36 45.9396 126.494 45.3628V41.1085H165.24V45.3628C164.181 45.9396 163.099 46.3722 161.993 46.6607C160.886 46.9011 159.853 47.1895 158.891 47.526C156.63 48.3432 155.379 49.6411 155.138 51.4197C154.802 53.3425 154.633 55.7461 154.633 58.6303V143.572H126.494ZM160.622 137.587C161.344 137.635 162.089 137.659 162.859 137.659H165.24C174.283 137.659 180.8 134.823 184.792 129.15C186.572 126.555 187.968 123.598 188.978 120.281C189.988 116.917 190.71 114.633 191.142 113.431C192.056 110.836 193.186 108.672 194.534 106.942H199.079V143.572H160.622V137.587ZM217.55 75.0706C218.752 74.5418 220.027 74.2774 221.374 74.2774C222.768 74.2774 224.067 74.5418 225.27 75.0706C226.472 75.5513 227.507 76.2243 228.372 77.0896C230.249 78.9644 231.186 81.2958 231.186 84.0837C231.186 88.4106 229.214 91.3665 225.27 92.9532C224.067 93.4339 222.768 93.6743 221.374 93.6743C220.027 93.6743 218.752 93.4339 217.55 92.9532C216.347 92.4724 215.289 91.7997 214.375 90.9341C212.499 89.1555 211.561 86.8723 211.561 84.0837C211.561 79.7094 213.558 76.705 217.55 75.0706ZM217.55 126.41C218.752 125.93 220.027 125.689 221.374 125.689C222.768 125.689 224.067 125.953 225.27 126.483C226.472 126.963 227.507 127.636 228.372 128.502C230.249 130.376 231.186 132.684 231.186 135.423C231.186 139.75 229.214 142.706 225.27 144.293C224.067 144.774 222.768 145.014 221.374 145.014C220.027 145.014 218.752 144.774 217.55 144.293C216.347 143.812 215.289 143.139 214.375 142.274C212.499 140.495 211.561 138.212 211.561 135.423C211.561 131.097 213.558 128.093 217.55 126.41ZM285.949 41.1085V45.3628C284.555 45.9396 283.232 46.3963 281.981 46.7328C280.731 47.0693 279.648 47.5019 278.734 48.0307C276.666 49.1844 275.632 51.2995 275.632 54.3761V130.304C275.632 133.381 276.666 135.496 278.734 136.649C279.696 137.178 280.803 137.611 282.053 137.948C283.303 138.284 284.651 138.74 286.094 139.317V143.572H247.204V139.317C248.599 138.74 249.921 138.284 251.172 137.948C252.423 137.611 253.529 137.178 254.491 136.649C256.608 135.496 257.666 133.381 257.666 130.304V54.3761C257.666 51.2995 256.608 49.1844 254.491 48.0307C253.529 47.5019 252.423 47.0693 251.172 46.7328C249.921 46.3963 248.599 45.9396 247.204 45.3628V41.1085H285.949ZM344.609 41.1085V127.059C344.609 130.857 345.017 133.308 345.835 134.414C346.653 135.472 347.399 136.169 348.072 136.505C348.794 136.793 349.587 137.034 350.453 137.227C352.906 137.851 354.758 138.548 356.009 139.317V143.572H315.459V139.317C316.517 138.644 317.888 138.091 319.572 137.659C321.304 137.178 322.506 136.793 323.18 136.505C323.902 136.217 324.526 135.736 325.056 135.063C326.066 133.621 326.571 130.953 326.571 127.059V41.1085H344.609ZM366.038 41.1085C368.01 41.1085 371.305 40.748 375.923 40.0269V74.1332H371.016C370.343 72.3066 369.741 70.3837 369.213 68.3647C368.731 66.2976 368.178 64.2787 367.553 62.3078C366.928 60.2888 366.206 58.366 365.389 56.5393C364.571 54.6645 363.513 53.0301 362.214 51.6361C359.328 48.5595 355.455 47.0213 350.597 47.0213V41.1085H366.038ZM295.474 40.0269C297.782 40.748 299.538 41.1085 300.741 41.1085H320.583V47.0213C313.656 47.0213 308.75 50.2179 305.863 56.6114C304.469 59.6398 303.362 62.8846 302.544 66.3457C301.727 69.7588 301.005 72.3546 300.38 74.1332H295.329V40.1711L295.474 40.0269Z" fill="#FCFCF8"/>
</g>
</g>
</g>
<defs>
<filter id="filter0_d_362_4" x="0" y="0" width="416" height="197.515" filterUnits="userSpaceOnUse" color-interpolation-filters="sRGB">
<feFlood flood-opacity="0" result="BackgroundImageFix"/>
<feColorMatrix in="SourceAlpha" type="matrix" values="0 0 0 0 0 0 0 0 0 0 0 0 0 0 0 0 0 0 127 0" result="hardAlpha"/>
<feOffset dy="4"/>
<feGaussianBlur stdDeviation="2"/>
<feComposite in2="hardAlpha" operator="out"/>
<feColorMatrix type="matrix" values="0 0 0 0 0 0 0 0 0 0 0 0 0 0 0 0 0 0 0.25 0"/>
<feBlend mode="normal" in2="BackgroundImageFix" result="effect1_dropShadow_362_4"/>
<feBlend mode="normal" in="SourceGraphic" in2="effect1_dropShadow_362_4" result="shape"/>
</filter>
<filter id="filter1_g_362_4" x="-9.3" y="12.9529" width="434.6" height="164.429" filterUnits="userSpaceOnUse" color-interpolation-filters="sRGB">
<feFlood flood-opacity="0" result="BackgroundImageFix"/>
<feBlend mode="normal" in="SourceGraphic" in2="BackgroundImageFix" result="shape"/>
<feTurbulence type="fractalNoise" baseFrequency="0.99900001287460327 0.99900001287460327" numOctaves="3" seed="109" />
<feDisplacementMap in="shape" scale="26.600000381469727" xChannelSelector="R" yChannelSelector="G" result="displacedImage" width="100%" height="100%" />
<feMerge result="effect1_texture_362_4">
<feMergeNode in="displacedImage"/>
</feMerge>
</filter>
<filter id="filter2_n_362_4" x="43.7363" y="38.9453" width="332.187" height="106.79" filterUnits="userSpaceOnUse" color-interpolation-filters="sRGB">
<feFlood flood-opacity="0" result="BackgroundImageFix"/>
<feBlend mode="normal" in="SourceGraphic" in2="BackgroundImageFix" result="shape"/>
<feTurbulence type="fractalNoise" baseFrequency="0.5 0.5" stitchTiles="stitch" numOctaves="3" result="noise" seed="1147" />
<feColorMatrix in="noise" type="luminanceToAlpha" result="alphaNoise" />
<feComponentTransfer in="alphaNoise" result="coloredNoise1">
<feFuncA type="discrete" tableValues="1 1 1 1 1 1 1 1 1 1 1 1 1 1 1 1 1 1 1 1 1 1 1 1 1 1 1 1 1 1 1 1 1 1 1 1 1 1 1 1 1 1 1 1 1 1 1 1 1 1 1 0 0 0 0 0 0 0 0 0 0 0 0 0 0 0 0 0 0 0 0 0 0 0 0 0 0 0 0 0 0 0 0 0 0 0 0 0 0 0 0 0 0 0 0 0 0 0 0 0 "/>
</feComponentTransfer>
<feComposite operator="in" in2="shape" in="coloredNoise1" result="noise1Clipped" />
<feFlood flood-color="rgba(0, 0, 0, 0.25)" result="color1Flood" />
<feComposite operator="in" in2="noise1Clipped" in="color1Flood" result="color1" />
<feMerge result="effect1_noise_362_4">
<feMergeNode in="shape" />
<feMergeNode in="color1" />
</feMerge>
</filter>
<clipPath id="clip0_362_4">
<rect width="408" height="189.515" fill="white" transform="translate(4)"/>
</clipPath>
</defs>
</svg>
